<?xml version="1.0" encoding="UTF-8" standalone="no"?>
<!-- Created with Inkscape (http://www.inkscape.org/) -->

<svg
   version="1.1"
   id="svg2681"
   width="504"
   height="492"
   viewBox="0 0 504 492"
   sodipodi:docname="Github_w.svg"
   inkscape:version="1.1.2 (b8e25be833, 2022-02-05)"
   xmlns:inkscape="http://www.inkscape.org/namespaces/inkscape"
   xmlns:sodipodi="http://sodipodi.sourceforge.net/DTD/sodipodi-0.dtd"
   xmlns="http://www.w3.org/2000/svg"
   xmlns:svg="http://www.w3.org/2000/svg">
  <defs
     id="defs2685" />
  <sodipodi:namedview
     id="namedview2683"
     pagecolor="#505050"
     bordercolor="#eeeeee"
     borderopacity="1"
     inkscape:pageshadow="0"
     inkscape:pageopacity="0"
     inkscape:pagecheckerboard="0"
     showgrid="false"
     inkscape:zoom="2.5093667"
     inkscape:cx="224.16014"
     inkscape:cy="309.24137"
     inkscape:window-width="2560"
     inkscape:window-height="1369"
     inkscape:window-x="-8"
     inkscape:window-y="-8"
     inkscape:window-maximized="1"
     inkscape:current-layer="g2687" />
  <g
     inkscape:groupmode="layer"
     inkscape:label="Image"
     id="g2687">
    <g
       id="g3084"
       transform="translate(0.36233284,-0.30522774)"
       style="fill:#ffffff;fill-opacity:1">
      <path
         style="fill:#ffffff;fill-opacity:1"
         d="M 164,488.64095 C 128.58509,475.02758 99.568185,456.32064 73.62377,430.37623 38.737071,395.48953 14.920288,351.64011 5.0888074,304.19553 -2.408057,268.0173 -1.510496,225.54619 7.5023485,189.99074 25.560174,118.75304 74.882627,58.390643 141.5,26.000116 158.76988,17.603197 171.60648,12.820895 188.53565,8.4768716 211.73295,2.52445 221.1881,1.4969487 252.5,1.525797 c 24.72599,0.022781 29.50056,0.2939968 40.83312,2.3194984 51.0604,9.1261756 96.67486,32.1994046 133.53631,67.5468806 19.08054,18.29686 38.47883,45.109354 50.61935,69.966534 8.91544,18.25397 13.5155,30.52707 17.99004,47.998 5.33607,20.83481 6.69079,31.63713 7.22905,57.64329 0.5148,24.87342 -0.52625,37.58011 -4.75192,58 C 480.7919,387.94264 419.9808,458.44852 339.79367,488.37725 334.45519,490.36976 328.67319,492 326.9448,492 c -4.07514,0 -9.68567,-2.68818 -11.22938,-5.38035 -0.87938,-1.53361 -1.36957,-14.42293 -1.77299,-46.61965 -0.47382,-37.81668 -0.81331,-45.37693 -2.26045,-50.33891 -2.72913,-9.35776 -5.83707,-15.77367 -10.28806,-21.23828 l -4.15506,-5.1013 13.35204,-2.19091 c 33.08726,-5.42923 55.40173,-15.79852 72.06155,-33.48622 19.66934,-20.8829 28.68523,-47.89858 28.74882,-86.14438 0.0242,-14.55541 -0.3013,-18.26536 -2.26361,-25.79946 C 405.01344,199.86598 399.04875,187.81902 389.87724,176.8 l -3.91197,-4.7 2.06901,-7.3 c 3.23971,-11.43052 3.65222,-26.98668 1.04897,-39.55756 -1.16831,-5.64166 -2.92367,-12.39166 -3.90079,-15 l -1.7766,-4.74244 -7.95293,0.13805 c -13.15705,0.22838 -31.70598,7.43428 -52.77658,20.50268 l -7.98581,4.95295 -9.09527,-2.03801 C 284.45812,124.3194 277.36863,123.59131 252,123.55148 c -25.57393,-0.0402 -30.81105,0.47414 -52.0041,5.10699 l -11.50411,2.51482 -8.99589,-5.67001 C 159.92173,113.16591 140.86581,105.86999 127.61072,105.63805 L 119.72143,105.5 117.81481,111 c -6.41109,18.49393 -7.22978,39.49067 -2.16615,55.55438 l 1.60399,5.08842 -5.70186,7.37971 c -15.595361,20.18449 -21.935983,44.29033 -19.585741,74.46124 2.531141,32.49314 11.452551,56.0529 27.891121,73.65516 17.32562,18.5521 43.15177,30.26998 76.87068,34.87789 l 9.19501,1.25656 -3.52571,4.11332 c -4.60499,5.37246 -8.92224,14.5276 -11.06919,23.47322 l -1.72275,7.17812 -8.05211,2.54557 c -26.53433,8.38848 -48.77924,1.03589 -63.20867,-20.89231 -7.24501,-11.01015 -11.17455,-15.46994 -17.78381,-20.18356 -10.129745,-7.22436 -24.04616,-10.52131 -31.012567,-7.3472 -5.107137,2.32696 -3.247848,5.56705 7.933332,13.82499 10.423867,7.69863 17.395453,16.14597 23.120345,28.01449 1.98973,4.125 4.78156,9.89102 6.20407,12.81338 5.29265,10.87308 20.10227,21.8594 34.6952,25.73817 9.07423,2.41191 25.2716,2.89899 36.98701,1.11227 5.49286,-0.83772 10.07414,-1.43601 10.18062,-1.32953 0.10648,0.10648 0.309,11.66233 0.45006,25.67966 0.23713,23.56497 0.11388,25.70362 -1.63502,28.37248 -2.19113,3.3437 -7.00279,5.63334 -11.70055,5.56773 C 173.97695,491.92895 168.675,490.438 164,488.64095 Z m -5.13922,-74.5783 C 155.33775,411.17151 157.32564,408.5 163,408.5 c 5.67436,0 7.66225,2.67151 4.13922,5.56265 C 165.84078,415.12819 163.97814,416 163,416 c -0.97814,0 -2.84078,-0.87181 -4.13922,-1.93735 z m -18.85192,-2.35251 C 135.61223,409.4857 136.60197,404 141.39994,404 c 5.30588,0 8.70526,5.80296 4.6658,7.96482 -2.44839,1.31033 -3.01032,1.28671 -6.05688,-0.25468 z m 37.65781,0.62319 C 177.3,411.96667 177,410.60702 177,409.31189 c 0,-3.11356 4.02843,-5.03966 7.78057,-3.7201 3.22228,1.13322 3.93217,3.55262 1.69795,5.78683 -1.60301,1.60301 -7.52224,2.24433 -8.81185,0.95471 z m -55.54014,-11.69864 c -2.55655,-2.72132 -2.52365,-5.35538 0.0874,-6.99966 2.60334,-1.63941 7.28603,2.19932 7.28603,5.97289 0,3.96218 -4.08181,4.53058 -7.37347,1.02677 z m -11.67198,-14.08924 c -2.82524,-2.82523 -3.09848,-4.76614 -0.92494,-6.57003 3.61283,-2.99837 9.50122,3.87265 6.45961,7.53757 -1.70117,2.04978 -2.69027,1.87687 -5.53467,-0.96754 z M 100.2,372.8 c -1.459913,-1.45991 -1.580708,-5.44668 -0.19105,-6.30553 2.83987,-1.75514 7.51928,2.92643 6.25266,6.25553 -0.60546,1.59135 -4.48824,1.62337 -6.06161,0.05 z M 89.893217,362.11462 c -1.99611,-1.61636 -2.13714,-2.11578 -0.988339,-3.5 1.712662,-2.06364 2.360698,-2.02991 5.201905,0.27076 1.99611,1.61636 2.13714,2.11578 0.988339,3.5 -1.712662,2.06364 -2.360698,2.02991 -5.201905,-0.27076 z"
         id="path3098" />
      <path
         style="fill:#ffffff;fill-opacity:1"
         d="M 164.114,488.49261 C 132.9812,477.19001 102.61775,458.06875 77.774107,434.12044 41.00201,398.67354 17.676053,357.6565 6.0507535,308 0.75723766,285.38919 -1.4113946,251.65297 0.93949644,228.48699 7.3945123,164.87845 35.214766,109.43079 82.393121,66.144387 117.8126,33.646814 160.78643,12.795475 210.74459,3.8669431 227.46926,0.8779075 264.48004,0.13654489 282,2.4396265 329.865,8.731706 373.0401,27.014357 410,56.641678 446.32801,85.76247 475.67207,128.22449 490.4113,173 c 9.86718,29.97497 13.13895,53.02728 12.32411,86.83355 -0.69495,28.83226 -4.34099,49.45163 -13.30522,75.24463 C 466.53779,400.94704 417.10808,454.4685 353,482.80196 c -22.95978,10.14739 -28.81443,11.01462 -35.29422,5.22796 L 314.5,485.16706 313.91423,439.83353 c -0.50414,-39.01567 -0.82886,-46.16094 -2.33003,-51.27058 -2.36092,-8.03605 -6.90834,-16.80909 -11.14162,-21.49483 l -3.49877,-3.87272 5.2781,-0.65391 c 48.20652,-5.97242 80.55664,-25.13581 96.25977,-57.02184 9.00359,-18.28226 12.85251,-37.44234 12.86043,-64.01965 0.005,-16.32358 -0.24117,-18.91941 -2.64167,-27.8718 -3.37038,-12.56944 -9.07829,-24.35235 -16.69062,-34.45468 l -5.99695,-7.95855 1.39703,-3.95959 c 5.4372,-15.41069 4.15426,-42.00271 -2.83327,-58.72623 l -1.59197,-3.81011 -8.24233,0.52257 c -13.48342,0.85486 -32.14999,8.23038 -51.16744,20.21723 l -8.92512,5.62557 -8.57488,-2.00524 c -16.71708,-3.90928 -27.72055,-5.24499 -47.57489,-5.77508 -22.51642,-0.60117 -40.19771,0.95528 -58.85849,5.18119 l -10.8585,2.45902 -11.52918,-6.92365 C 156.99974,111.8574 138.44544,105 125.78901,105 c -5.79683,0 -5.91465,0.0565 -7.36581,3.52957 -6.09378,14.58446 -7.76931,40.47802 -3.60782,55.75515 l 2.12055,7.78471 -4.97355,6.17213 C 106.18101,185.41616 99.140303,198.70038 96.190229,208 92.31659,220.21101 91.569536,226.04392 91.707583,243 92.247725,309.34524 122.45477,347.59921 184,359.87842 c 5.775,1.1522 13.07118,2.38595 16.21372,2.74166 l 5.71373,0.64676 -3.52393,4.11658 c -4.756,5.55586 -9.07053,14.60645 -11.10631,23.29768 l -1.68205,7.18111 -8.00855,2.64685 c -15.12785,4.99981 -30.44785,4.43741 -42.32609,-1.55379 -8.62796,-4.35182 -14.12591,-9.64692 -22.28709,-21.46478 -4.04641,-5.85945 -9.63779,-12.66274 -12.42527,-15.11842 -7.309649,-6.43956 -16.449748,-10.55909 -24.744497,-11.15257 -15.429068,-1.10395 -16.993431,5.16324 -3.520962,14.10576 2.925479,1.94182 8.324062,6.71605 11.996851,10.6094 5.540109,5.87281 7.900433,9.57682 13.854188,21.74113 6.00681,12.27271 8.146,15.61698 13.12585,20.52011 6.47415,6.37441 17.89963,12.53706 27.72041,14.95177 6.97132,1.71409 32.54345,1.749 39.89593,0.0545 2.96776,-0.68398 5.5208,-1.11873 5.67343,-0.9661 0.15263,0.15262 0.39188,11.52446 0.53167,25.27073 0.28522,28.04549 -0.0644,29.82439 -6.45811,32.8584 -4.86024,2.30633 -7.85073,2.00411 -18.52892,-1.87255 z m -3.76167,-73.49524 c -2.96047,-1.18163 -3.63466,-2.60131 -2.36339,-4.9767 1.47589,-2.75772 8.48628,-2.86976 9.93713,-0.15881 1.88302,3.51845 -3.12216,6.9123 -7.57374,5.13551 z M 140.272,411.78932 c -5.19062,-2.50519 -2.88149,-8.6576 2.72241,-7.25352 5.10862,1.27999 6.82111,5.4222 3.07133,7.42902 -2.31553,1.23923 -2.89913,1.22155 -5.79374,-0.1755 z m 37.39467,0.54401 C 177.3,411.96667 177,410.60702 177,409.31189 c 0,-2.8845 3.74398,-4.84395 7.46908,-3.90901 3.40336,0.85419 4.22514,3.17253 1.99721,5.63437 -1.721,1.90168 -7.36302,2.73269 -8.79962,1.29608 z m -55.59409,-11.96819 c -2.46935,-3.13927 -2.60045,-4.68215 -0.54297,-6.38972 3.20182,-2.65727 9.72107,3.32299 8.13323,7.46081 -0.95298,2.48343 -5.27389,1.8737 -7.59026,-1.07109 z M 111.19768,387.25 c -2.83135,-2.44819 -3.58519,-5.6835 -1.69064,-7.25584 3.63186,-3.01418 9.53814,3.83663 6.48218,7.51883 -1.58727,1.91254 -2.32217,1.87221 -4.79154,-0.26299 z M 100.75,372.9199 c -2.224115,-1.29543 -2.286687,-5.77672 -0.0924,-6.61874 2.06499,-0.79241 6.52235,4.06638 5.69893,6.21217 -0.65591,1.70928 -3.0694,1.8843 -5.60651,0.40657 z M 89.036355,361.5438 C 87.444992,359.62633 88.546505,358 91.436572,358 c 2.61481,0 5.068745,2.37336 4.090501,3.9562 -0.948154,1.53414 -5.093837,1.27074 -6.490718,-0.4124 z"
         id="path3096" />
      <path
         style="fill:#ffffff;fill-opacity:1"
         d="M 164,488.51375 C 143.21935,480.87474 118.70301,467.37069 99.310181,452.88139 86.700734,443.46028 60.54652,417.30842 51.131966,404.70751 25.723719,370.69984 10.222051,334.34577 2.8179531,291.40287 -0.18091262,274.00979 -0.44690032,233.68319 2.3225149,216.28909 11.202365,160.51668 34.991191,113.24577 73.601547,74.65013 111.4228,36.843297 156.7233,13.435623 210.5,3.9119728 225.66154,1.2269205 260.43131,0.18439781 277.16645,1.913073 325.25826,6.8807732 372.08035,26.178648 410,56.660851 420.89279,65.417164 438.58284,83.107207 447.33915,94 c 30.05662,37.39024 49.48841,84.08182 54.60633,131.21059 1.53779,14.16083 1.29453,43.40005 -0.48104,57.81927 -6.92962,56.27477 -32.00164,107.4372 -72.35847,147.65603 -19.01816,18.95314 -41.43826,35.14226 -64.60597,46.65075 -26.54615,13.18671 -39.13876,16.55027 -45.17667,12.06696 -5.30241,-3.93718 -5.29274,-3.85054 -5.30859,-47.56563 -0.0165,-45.60278 -0.57904,-51.17666 -6.40216,-63.43849 -1.86944,-3.93651 -5.01726,-8.94853 -6.99515,-11.13782 l -3.59617,-3.98053 9.23937,-1.24495 c 23.52635,-3.17004 47.13762,-11.44123 62.56252,-21.91609 26.70093,-18.13225 40.93202,-48.92677 42.78478,-92.58159 1.20016,-28.27816 -5.11787,-49.80394 -20.38405,-69.44926 l -4.89656,-6.30114 1.8882,-6.64405 c 4.17407,-14.68744 3.19394,-36.71612 -2.39052,-53.72757 l -2.19061,-6.67305 -8.5672,0.53396 c -4.71195,0.29367 -11.71719,1.51816 -15.56719,2.72108 -9.2348,2.88538 -24.85629,10.47354 -35.88837,17.43283 l -8.88838,5.60698 -11.11162,-2.45956 c -20.01586,-4.4305 -26.88592,-5.08112 -53.11163,-5.02985 -25.89015,0.0506 -33.75663,0.85878 -53.29637,5.47546 l -8.29636,1.96019 -9.70364,-5.85749 C 157.90835,112.27238 142.1202,106.1085 128.25767,105.23713 l -8.24233,-0.51809 -1.53345,3.67005 c -6.2051,14.85091 -7.92812,40.93745 -3.68955,55.85999 l 2.20103,7.74907 -5.07574,6.25093 c -5.73788,7.06637 -14.907325,25.24095 -17.28029,34.25092 -4.116403,15.62968 -4.31242,36.83238 -0.548194,59.29702 4.195941,25.04109 13.705544,44.1136 29.549354,59.26433 8.26208,7.90066 13.19765,11.33932 24.21552,16.87118 13.55084,6.80362 33.48384,12.47013 51.39598,14.61075 3.1625,0.37794 5.75,0.89708 5.75,1.15365 0,0.25656 -1.57103,2.38371 -3.49118,4.727 -4.4625,5.44589 -8.98304,15.41513 -10.51048,23.179 -1.182,6.00798 -1.24421,6.09008 -5.84653,7.71576 -22.67263,8.00868 -41.58311,5.44125 -56.79657,-7.71113 -2.27961,-1.97078 -7.33932,-8.27637 -11.2438,-14.01243 C 108.993,365.66836 102.28779,359.2976 93.023098,354.70834 87.227793,351.83763 85.628482,351.5 77.82556,351.5 c -5.352409,0 -9.176104,0.45452 -9.899882,1.17678 -2.174148,2.16961 -0.05911,6.19844 5.288046,10.07292 2.846673,2.06267 8.89794,7.4452 13.447259,11.96119 7.643499,7.58751 8.817751,9.32698 15.466497,22.91125 8.83495,18.05096 14.11123,23.95767 27.0265,30.2557 11.80816,5.75816 21.92882,7.57171 37.84054,6.78077 6.87802,-0.34189 14.47737,-1.09556 16.88746,-1.67481 2.41008,-0.57925 4.51675,-0.9184 4.68148,-0.75368 0.16472,0.16473 0.39105,11.54284 0.50294,25.28469 0.21734,26.69321 -0.1195,28.97951 -4.71296,31.98926 -4.62545,3.03071 -10.14553,2.76212 -20.35344,-0.99032 z m -3,-73.21773 C 155.45693,413.35194 156.92401,408 163,408 c 2.80899,0 4.21379,0.53096 4.92607,1.86186 1.71247,3.19978 -2.92421,6.8377 -6.92607,5.43416 z M 140.79578,411.786 c -3.5362,-1.20586 -4.68772,-4.66009 -2.16833,-6.5044 3.34475,-2.44849 9.72441,0.34944 9.17081,4.02205 -0.38257,2.53794 -3.54837,3.66021 -7.00248,2.48235 z m 36.87089,0.54733 c -1.75232,-1.75231 -0.53609,-5.14478 2.25961,-6.30279 5.37844,-2.22783 9.86458,1.3331 6.44284,5.11408 -1.63062,1.80182 -7.31314,2.57802 -8.70245,1.18871 z m -55.21212,-11.78788 c -2.88974,-2.88973 -3.13538,-5.11832 -0.70455,-6.3921 2.44614,-1.2818 6.0451,0.30284 7.38959,3.25366 2.47007,5.42124 -2.20666,7.61683 -6.68504,3.13844 z M 110.27768,386.75 c -2.97821,-3.84897 -1.41078,-8.56179 2.44097,-7.3393 2.26516,0.71894 4.86252,5.83994 3.81865,7.52894 -0.903,1.46109 -5.08026,1.33454 -6.25962,-0.18964 z m -9.70625,-14.32143 c -2.055064,-2.05506 -2.00911,-5.32339 0.0861,-6.12741 2.06499,-0.79241 6.52235,4.06638 5.69893,6.21217 -0.74627,1.94476 -3.8003,1.90002 -5.78508,-0.0848 z M 89.070368,361.13148 C 87.870766,358.89001 88.573868,358 91.544222,358 c 2.525936,0 4.943672,2.40155 3.982851,3.9562 -1.067906,1.7279 -5.385747,1.17639 -6.456705,-0.82472 z"
         id="path3094" />
      <path
         style="fill:#ffffff;fill-opacity:1"
         d="m 170.5,490.53054 c -2.75,-0.75867 -9.94378,-3.45509 -15.98619,-5.99204 C 100.68018,461.93605 55.974328,420.89523 28.657484,369 1.3710546,317.16255 -6.6436436,256.40415 6.0347573,197.5 11.331375,172.89179 24.672886,140.36855 38.34726,118.73025 95.139381,28.862559 200.48028,-15.527655 304.72102,6.4814686 401.72933,26.963555 478.51203,104.64367 497.98079,202 c 4.244,21.22273 5.39062,35.35224 4.70569,57.98699 -0.57067,18.85881 -2.02523,31.59241 -5.30389,46.43185 -17.84203,80.75425 -73.78544,147.19498 -150.77268,179.06394 -17.30121,7.16186 -24.34048,7.62431 -29.67504,1.94953 L 314.5,484.84216 313.98921,439.17108 313.47842,393.5 l -2.80695,-8 c -2.87839,-8.20359 -7.1593,-15.82153 -10.6829,-19.01034 C 298.89486,365.49986 298,364.37368 298,363.98703 c 0,-0.38665 4.12453,-1.26664 9.16563,-1.95554 44.61544,-6.09699 75.7259,-25.10697 91.18461,-55.71817 9.60532,-19.02039 14.53595,-45.33681 13.34484,-71.22597 -1.08516,-23.58643 -8.32441,-42.87268 -22.31201,-59.44197 -2.80765,-3.32586 -3.11727,-4.21429 -2.2571,-6.47669 5.53116,-14.54806 5.01828,-39.20521 -1.20443,-57.90446 L 383.83694,105 h -6.8066 c -12.86708,0 -31.06762,6.80018 -52.00315,19.42969 l -10.52719,6.3506 -10.39182,-2.34301 c -33.42843,-7.53702 -72.14848,-7.52529 -105.21636,0.0319 l -10.39182,2.37489 -5.48962,-3.59134 c -9.085,-5.94346 -26.94032,-14.88197 -36.51038,-18.27738 -6.61649,-2.3475 -11.39773,-3.3301 -18.05373,-3.71023 l -9.05373,-0.51708 -2.68435,8.87599 c -1.4764,4.88179 -3.19526,12.25099 -3.81969,16.37599 -1.81587,11.99576 -0.17697,30.39699 3.56607,40.03895 0.37472,0.96525 -1.47224,4.1339 -4.9545,8.5 -7.24584,9.0849 -13.831857,22.49921 -17.164817,34.96105 -2.425718,9.06969 -2.675969,11.67456 -2.68998,28 -0.02713,31.61749 6.069881,55.36793 19.299407,75.17929 5.42648,8.12623 18.88929,20.83732 28.2319,26.65553 14.05797,8.75475 35.67685,15.93796 56.47926,18.76613 4.86429,0.66132 9.01655,1.34403 9.22724,1.51714 0.2107,0.17311 -1.02764,1.92146 -2.75186,3.88524 -4.47116,5.09238 -8.1813,12.76102 -10.64211,21.99667 l -2.13159,8 -7.92876,2.68782 c -20.57844,6.97603 -40.2106,3.47614 -53.75901,-9.58379 -2.91222,-2.80722 -7.85095,-8.99334 -10.97496,-13.74694 -3.12401,-4.7536 -8.17008,-10.91868 -11.21347,-13.70017 -11.522552,-10.53098 -27.982813,-15.4518 -36.73132,-10.9809 -4.332081,2.21389 -0.824309,7.74711 9.25,14.5911 10.177141,6.91385 17.301721,16.32967 25.40474,33.57482 4.38087,9.32352 6.51905,12.58183 11.57306,17.63584 7.24916,7.24916 18.55389,13.18713 29.5222,15.50696 10.89704,2.30475 33.42853,1.73023 42.75,-1.09006 1.63496,-0.49467 1.75,1.15754 1.75,25.13362 0,22.30213 -0.22141,26.03791 -1.69057,28.525 -2.83221,4.79456 -9.3584,6.53282 -16.80943,4.47722 z M 158.66667,414.33333 C 158.3,413.96667 158,412.62524 158,411.35239 c 0,-2.64354 3.39012,-3.97326 7.5,-2.94175 2.89298,0.72609 3.54503,4.97437 0.91821,5.98237 -2.11171,0.81034 -6.91853,0.77333 -7.75154,-0.0597 z M 178.25,412.33772 c -2.06612,-0.8337 -1.41172,-4.18565 1.14411,-5.8603 2.80953,-1.84087 7.14714,-1.11528 8.09472,1.35407 1.22501,3.19233 -4.9866,6.22204 -9.23883,4.50623 z m -39.67239,-2.25197 C 135.98372,407.21954 137.21425,405 141.39719,405 c 6.77931,0 9.11552,6.24475 2.54338,6.79851 -2.54453,0.2144 -4.05567,-0.26821 -5.36296,-1.71276 z m -16.12306,-9.5403 c -3.39111,-3.3911 -2.89033,-5.95301 1.24208,-6.35422 5.75508,-0.55875 8.53952,7.53102 2.96956,8.62759 -0.8907,0.17536 -2.78594,-0.84766 -4.21164,-2.27337 z m -11.8299,-14.06366 c -2.11198,-2.11198 -2.09247,-6.36504 0.0329,-7.18063 2.01542,-0.77339 6.59694,4.12986 6.13334,6.56405 -0.42479,2.23042 -4.17722,2.60563 -6.16627,0.61658 z m -10.00327,-14.00327 c -1.834961,-1.83496 -2.142924,-5.03815 -0.5774,-6.0057 1.83511,-1.13416 6.10842,2.44477 5.76729,4.83016 -0.38861,2.71743 -3.04608,3.31936 -5.18989,1.17554 z M 89.666667,362.33333 C 89.3,361.96667 89,360.84167 89,359.83333 c 0,-2.49543 4.589863,-2.4682 5.929632,0.0352 0.55,1.02768 0.715833,2.15268 0.368518,2.5 -0.835231,0.83523 -4.78575,0.81055 -5.631483,-0.0352 z"
         id="path3092" />
      <path
         style="fill:#ffffff;fill-opacity:1"
         d="M 171.16931,490.36391 C 156.35878,486.57362 130.05467,473.73332 111.6854,461.32694 51.566383,420.72331 12.813614,358.76811 2.3317481,286.5 -0.12935268,269.53173 -0.09622484,233.91565 2.3959275,217.5 10.549733,163.79141 33.934873,115.92405 70.491542,78.114155 109.07264,38.210432 156.28371,13.527358 212.59713,3.8179531 230.03438,0.81147077 270.31201,0.55290284 287.79707,3.3351964 343.63336,12.220091 391.72585,36.629526 430.23373,75.629192 450.32249,95.974511 464.26817,115.51356 476.89109,141 c 11.29111,22.79745 18.68786,45.85319 23.27825,72.5586 3.00961,17.50889 3.29246,56.77761 0.5362,74.4414 -4.22443,27.07269 -11.69758,51.11255 -23.15944,74.5 -13.48144,27.50829 -25.91402,44.87106 -48.03017,67.07668 -26.19968,26.30567 -52.38455,43.63088 -86.01593,56.91242 -16.69734,6.59404 -23.15427,6.40585 -27.54977,-0.80292 -1.84147,-3.02008 -1.94295,-5.3593 -1.94649,-44.8708 -0.004,-45.66959 -0.42936,-50.18163 -5.85818,-62.15462 -1.58868,-3.50376 -4.58445,-8.24768 -6.65727,-10.54204 -2.07282,-2.29437 -3.59316,-4.31297 -3.37853,-4.48579 0.21463,-0.17282 4.44024,-0.8881 9.39024,-1.58951 4.95,-0.7014 13.95,-2.51876 20,-4.03857 46.94,-11.79169 72.46435,-38.10494 81.67897,-84.20348 1.91194,-9.56501 2.25516,-14.45102 2.23388,-31.80137 -0.022,-17.9036 -0.30132,-21.51323 -2.2058,-28.5 -2.86548,-10.51236 -10.81755,-26.49414 -17.46654,-35.10364 l -5.32595,-6.89636 1.89486,-6 c 2.39811,-7.59354 3.35547,-27.28158 1.80914,-37.20497 -0.6175,-3.96273 -2.26636,-10.82523 -3.66415,-15.25 L 383.91299,105 h -6.79653 c -13.50926,0 -31.89502,6.91253 -53.19384,19.99941 l -9.57739,5.88473 -7.42261,-1.90079 c -32.51717,-8.32702 -75.63108,-8.3343 -110.53428,-0.0187 l -7.72217,1.8398 -8.08309,-5.07326 C 169.26345,118.62659 149.89204,109.47906 141.0201,107.04888 136.68841,105.86235 130.49721,105 126.31028,105 h -7.22992 l -2.00839,6.5024 c -5.59866,18.12637 -6.48491,38.93702 -2.28559,53.66953 l 1.90176,6.67193 -4.4828,5.65082 c -13.975853,17.61735 -21.23596,39.31669 -21.188011,63.32768 0.09688,48.51121 16.989441,84.04032 49.108891,103.28776 14.22927,8.52683 34.81921,15.26878 54.87378,17.96781 5.225,0.70321 9.66598,1.40183 9.86885,1.5525 0.20287,0.15067 -1.27224,2.19118 -3.27801,4.53448 -4.61417,5.39062 -8.21916,12.98736 -10.51472,22.15752 l -1.79676,7.17757 -6.81448,2.31308 c -10.82267,3.6736 -20.87795,4.79083 -29.40433,3.26708 -14.92266,-2.66683 -26.06303,-10.771 -36.41629,-26.49139 C 107.52872,362.74776 95.738088,353.78775 83.111044,351.10602 77.804448,349.979 72.183112,350.39423 68.75,352.16681 c -4.348629,2.24528 -0.782436,7.82717 9.347959,14.63166 9.328895,6.26612 19.415715,19.66681 24.991101,33.20153 7.19117,17.45719 21.42583,29.16818 40.60835,33.40887 8.67439,1.91765 26.55919,2.01655 37.59828,0.20792 l 7.79569,-1.27724 -0.29569,26.30916 -0.29569,26.30916 -2.59252,2.59086 c -3.54406,3.54178 -8.32819,4.45562 -14.73817,2.81518 z m -12.85984,-76.99983 c -1.45169,-3.78305 4.89339,-7.10046 8.251,-4.31389 1.91263,1.58733 1.83281,4.58492 -0.14226,5.34282 -3.09526,1.18777 -7.47119,0.6325 -8.10874,-1.02893 z M 178.25,412.33772 c -0.6875,-0.27741 -1.25,-1.31179 -1.25,-2.29861 0,-3.86973 5.70537,-5.90803 9.0213,-3.22294 l 2.30006,1.86247 -2.16068,2.16068 c -2.04217,2.04217 -5.11884,2.62493 -7.91068,1.4984 z m -39.57522,-2.14459 C 136.17246,407.4281 137.51005,405 141.53556,405 c 3.68785,0 6.72979,2.36865 6.25607,4.87138 -0.47142,2.49061 -6.94723,2.71915 -9.11685,0.32175 z M 123.16742,401.25 c -1.95619,-1.66655 -2.54913,-3.22289 -2.2859,-6 0.1858,-1.96023 4.90552,-1.46296 7.11848,0.75 2.2828,2.2828 2.52939,4.07061 0.8,5.8 -1.65628,1.65628 -3.22235,1.50336 -5.63258,-0.55 z m -12.59599,-14.82143 c -1.74773,-1.74772 -2.10988,-5.97775 -0.5921,-6.9158 1.34464,-0.83103 4.75696,1.12596 5.99417,3.43771 2.22066,4.14934 -2.00813,6.87203 -5.40207,3.47809 z m -9.88294,-14.22029 c -3.484001,-3.84978 -0.903295,-7.44789 3.25361,-4.53628 2.46534,1.72679 2.46304,5.63527 -0.004,6.10481 -0.85883,0.16348 -2.32133,-0.54236 -3.25,-1.56853 z M 89.666667,362.33333 C 89.3,361.96667 89,360.81178 89,359.76691 c 0,-2.93924 5.39185,-2.02841 5.819551,0.98309 0.25532,1.79774 -0.163438,2.25 -2.083333,2.25 -1.321587,0 -2.702885,-0.3 -3.069551,-0.66667 z"
         id="path3090" />
      <path
         style="fill:#ffffff;fill-opacity:1"
         d="M 161.23924,487.03074 C 129.07282,474.78215 99.152866,455.25024 73.951314,430.04869 15.134843,371.23221 -10.633937,288.27231 4.5220273,206.52832 21.690424,113.93023 88.860277,38.919082 179,11.682072 204.19454,4.0691823 222.9863,1.4908625 252.5,1.5975233 c 41.83575,0.151192 73.62327,7.4809674 110,25.3645217 26.5742,13.064429 47.24427,27.916012 67.73373,48.667147 20.34225,20.602055 33.99626,39.818268 46.80423,65.870808 17.88355,36.37673 25.21332,68.16425 25.36452,110 0.0849,23.48275 -0.65007,31.8274 -4.53574,51.5 -14.52003,73.51297 -64.17925,138.70366 -132.0594,173.36244 -32.81815,16.75655 -46.96819,18.77029 -50.77803,7.22638 -0.76476,-2.31726 -1.03986,-16.38178 -0.87498,-44.73436 0.22999,-39.54839 0.14738,-41.68874 -1.89148,-49.00857 -2.62372,-9.41954 -6.24353,-16.71186 -10.79789,-21.75299 C 299.55923,365.98348 298,364.03874 298,363.77126 c 0,-0.26749 2.68521,-0.76701 5.96714,-1.11004 16.1174,-1.6846 39.38969,-8.28329 52.46697,-14.87662 28.30112,-14.26894 45.10408,-37.54784 52.69747,-73.00735 2.91257,-13.60106 3.67903,-42.27244 1.44595,-54.08924 -3.12542,-16.53879 -8.81735,-29.3176 -18.8382,-42.29319 l -5.32477,-6.89482 1.83036,-6 c 4.8059,-15.75403 3.98467,-34.61672 -2.35903,-54.1836 -2.38772,-7.36482 -3.84688,-8.00001 -14.4767,-6.30189 C 357.8978,107.17296 338.97426,115.22475 322,126.03766 l -7.5,4.77764 -7,-1.79364 c -21.45327,-5.49704 -48.80848,-7.85356 -71.19657,-6.13324 -15.12856,1.16249 -31.75367,3.74264 -42.14622,6.54092 l -5.34279,1.43859 -6.69782,-4.29319 c -17.18469,-11.01511 -33.39985,-18.15288 -47.92458,-21.09596 -4.70206,-0.95276 -9.78357,-1.40279 -11.72569,-1.03844 -3.30134,0.61933 -3.51805,0.94503 -5.88945,8.85133 -5.35678,17.8596 -6.10862,34.85156 -2.21221,49.99698 l 2.26103,8.78864 -3.1314,3.71136 c -18.854306,22.34626 -25.894578,51.87856 -21.047131,88.28778 4.505253,33.83901 16.903541,57.4514 38.901771,74.08795 14.4544,10.93139 32.02685,18.03098 55.65106,22.48404 7.425,1.39958 14.54887,2.74394 15.83082,2.98747 2.28732,0.43452 2.26184,0.51914 -1.36483,4.53344 -4.49583,4.97634 -7.86785,12.1177 -10.36093,21.94264 l -1.87472,7.38803 -6.61768,2.27486 C 167.21405,405.06822 151.87433,404.63238 139.5,398.54994 130.97983,394.36195 124.47571,388.137 117.32294,377.32473 105.47839,359.42031 87.265018,348.08591 74.179298,350.47595 70.119291,351.21749 66,353.50607 66,355.02017 c 0,1.78368 7.07121,8.83152 11.414695,11.37697 8.875748,5.20153 20.370591,20.3263 25.610065,33.69739 6.6009,16.84543 20.80716,28.57815 40.47524,33.42785 8.65854,2.135 27.84624,2.23141 38.29582,0.19241 l 7.29582,-1.42361 -0.29582,26.43793 -0.29582,26.43792 -3.26578,2.91649 c -4.75239,4.2441 -10.77909,3.97968 -23.99498,-1.05278 z M 159.25,414.33772 c -1.58815,-0.64083 -1.61666,-3.57106 -0.05,-5.13772 2.77055,-2.77055 8.8,-0.78837 8.8,2.89301 0,2.50834 -4.94975,3.77814 -8.75,2.24471 z m 18.68043,-2.92154 c -2.13227,-2.56923 0.0947,-4.91618 4.66486,-4.91618 3.03809,0 3.95793,0.41858 4.24976,1.9339 0.74198,3.85281 -6.25068,6.19212 -8.91462,2.98228 z m -39.29829,-1.53098 c -2.108,-3.0096 -0.99328,-4.8852 2.90342,-4.8852 3.02452,0 6.46444,2.0601 6.46444,3.87143 0,3.42439 -7.13831,4.19689 -9.36786,1.01377 z M 124,401.71245 C 120.67995,400.04172 119.78288,394 122.85485,394 c 3.33249,0 5.25426,1.15678 6.24325,3.75802 0.6425,1.6899 0.57879,2.92637 -0.19905,3.86362 -1.39176,1.67697 -1.73444,1.68332 -4.89905,0.0908 z M 110.57143,386.42857 C 109.70714,385.56429 109,383.76429 109,382.42857 109,380.56108 109.53137,380 111.3,380 c 3.07364,0 4.7,1.79938 4.7,5.2 0,3.23281 -2.79237,3.86477 -5.42857,1.22857 z m -9.88294,-14.22029 C 98.205176,369.46425 98.531198,367 101.37756,367 c 2.83145,0 4.92188,2.20661 4.44353,4.69048 -0.47819,2.48304 -3.11348,2.74891 -5.1326,0.5178 z M 90.25,362.33772 C 88.527704,361.64276 88.668967,358 90.418213,358 93.175824,358 95,359.23701 95,361.10699 c 0,1.84648 -1.963328,2.35518 -4.75,1.23073 z"
         id="path3088" />
      <path
         style="fill:#ffffff;fill-opacity:1"
         d="M 160.18973,486.47812 C 101.4704,463.31069 54.708755,420.40745 26.579829,363.89268 -13.124162,284.12205 -7.4698323,189.39474 41.466227,114.5 75.615144,62.236409 129.65659,23.874831 190.5,8.7076635 213.31611,3.0200188 225.43672,1.586894 251,1.5542247 273.80333,1.5250825 282.54909,2.3128398 301.5,6.1029099 384.15038,22.632503 454.28204,81.338273 485.35003,160 c 30.24649,76.58174 20.86716,164.0911 -24.86598,232 -29.42144,43.68775 -72.10718,77.70806 -119.69038,95.39259 -10.54918,3.92066 -16.21787,4.47365 -20.92211,2.04099 -5.83456,-3.01717 -5.97633,-4.26448 -5.71086,-50.24715 0.23041,-39.90963 0.14966,-42.01267 -1.89458,-49.34054 -2.53877,-9.10061 -6.26471,-16.82016 -10.84164,-22.46216 l -3.33922,-4.11628 6.70737,-0.67421 c 9.05161,-0.90986 28.03393,-5.21533 36.66755,-8.31675 47.33462,-17.00382 70.51058,-53.9915 70.53392,-112.56865 0.0105,-26.33371 -5.46948,-43.8959 -19.52448,-62.57185 l -5.54194,-7.364 2.16469,-8.636 c 1.61931,-6.46026 2.15158,-11.53328 2.11269,-20.13599 -0.0553,-12.22981 -0.91357,-18.06777 -4.38868,-29.85155 -2.74794,-9.31799 -3.87011,-9.94551 -14.79452,-8.27317 -14.37168,2.20005 -31.62975,9.36862 -49.03343,20.36725 l -8.51157,5.37907 -6.98843,-1.79479 C 291.36847,124.68685 273.32211,122.6838 252,122.66789 c -21.62881,-0.0161 -34.32468,1.31454 -53.5,5.60741 l -10,2.23874 -8.5,-5.34629 c -21.83965,-13.7366 -46.8835,-22.71385 -57.71897,-20.69001 -3.02161,0.56438 -3.37402,1.09208 -5.74792,8.60679 -1.39092,4.40304 -3.03417,11.24777 -3.65167,15.2105 -1.54173,9.89381 -0.58875,29.61107 1.79644,37.16878 l 1.88217,5.96381 -6.03003,8.03619 c -7.03005,9.36892 -13.58021,22.71237 -16.708017,34.03619 -1.942327,7.03194 -2.212761,10.48065 -2.234858,28.5 -0.02128,17.35035 0.321942,22.23636 2.233887,31.80137 8.402658,42.0365 30.863378,68.09558 69.967468,81.17674 9.85104,3.29538 23.80495,6.52374 32.7115,7.56809 3.3,0.38695 6.35045,0.90691 6.77879,1.15548 0.42833,0.24856 -0.81181,2.61876 -2.75587,5.26709 -4.70759,6.41303 -8.35072,14.57126 -9.90116,22.17212 l -1.26951,6.22363 -6.83907,2.307 c -9.04832,3.05224 -20.64086,4.44506 -28.08362,3.37419 -16.04324,-2.30832 -27.05191,-10.13796 -37.8955,-26.95226 -4.85905,-7.53454 -13.90638,-16.4906 -20.620869,-20.41285 -9.824252,-5.73881 -24.390862,-7.12522 -28.393444,-2.70242 -1.610553,1.77964 -1.611257,2.05832 -0.01205,4.76555 0.934191,1.58146 4.205052,4.64858 7.268581,6.81583 13.382349,9.46712 19.26467,16.87309 27.837612,35.04816 4.66396,9.88782 6.61091,12.82396 12.22865,18.44171 15.74272,15.74272 36.07394,20.24589 69.40747,15.37309 l 4.75,-0.69437 -0.004,24.88593 c -0.003,23.10847 -0.14635,25.11983 -2.00046,28.16085 -4.08643,6.70235 -11.13233,6.88719 -26.80607,0.70319 z m -1.17916,-72.96539 c -1.69726,-2.04507 -0.60196,-4.3262 2.44437,-5.09078 3.07627,-0.77209 5.38641,0.001 6.17962,2.0681 C 168.49576,412.73431 166.16746,415 163,415 c -1.51531,0 -3.31055,-0.66927 -3.98943,-1.48727 z m 19.43056,-1.95416 c -3.04896,-2.26408 -0.74653,-5.05857 4.16786,-5.05857 3.27294,0 3.94174,0.35715 4.21035,2.24839 0.23601,1.66171 -0.36807,2.50974 -2.3151,3.25 -3.41401,1.298 -3.75627,1.27317 -6.06311,-0.43982 z m -38.85874,-0.87467 c -2.75926,-2.01761 -1.63776,-5.12781 1.9769,-5.48242 3.95358,-0.38787 7.3957,2.9429 5.45628,5.27976 -1.55048,1.86821 -5.02583,1.96296 -7.43318,0.20266 z m -15.14279,-8.95258 c -2.55883,-1.39893 -3.40573,-2.75457 -3.42429,-5.48132 -0.0219,-3.2176 4.23156,-3.02291 6.85623,0.31382 3.07984,3.91538 0.73521,7.44571 -3.43194,5.1675 z M 110.65499,386.17126 C 108.13956,383.39174 108.49406,380 111.3,380 c 3.07364,0 4.7,1.79938 4.7,5.2 0,3.33749 -2.75118,3.83741 -5.34501,0.97126 z M 101.0625,372.0625 C 98.270497,369.2705 98.411798,367 101.37756,367 c 2.80159,0 4.92398,2.20055 4.45502,4.61909 -0.49912,2.57407 -2.45739,2.7561 -4.77008,0.44341 z M 90.2,361.8 C 88.563055,360.16305 88.687267,358 90.418213,358 93.175824,358 95,359.23701 95,361.10699 c 0,2.1527 -2.918888,2.57412 -4.8,0.69301 z"
         id="path3086" />
    </g>
  </g>
</svg>
